# xmcd
#
# Track frame offsets:
#	150
#	16349
#	34095
#	46742
#	62814
#	86397
#	101668
#	113494
#	125004
#	143128
#	162161
#	177901
#	191786
#
# Disc length: 2767 seconds
# Revision: 0
# Processed by: cddbd v1.5.2PL0 Copyright (c) Steve Scherf et al.
# Submitted via: dBpowerAMP V12.0
#
DISCID=a70acd0d
DTITLE=The Knickerbocker All-Stars - Open Mic At The Knick
DYEAR=2014
DGENRE=Blues
TTITLE0=You Upset Me Baby
TTITLE1=Turn On Your Love Light
TTITLE2=Mother-in-Law Blues
TTITLE3=Love Disease
TTITLE4=Jelly Jelly
TTITLE5=Reconsider Baby
TTITLE6=Later Than You Think
TTITLE7=Ain't That Lovin You 
TTITLE8=Five Long Years
TTITLE9=Somebody's Got to Go
TTITLE10=I'm Tore Down
TTITLE11=Along About Midnight
TTITLE12=Going Down
EXTD=
EXTT0=
EXTT1=
EXTT2=
EXTT3=
EXTT4=
EXTT5=
EXTT6=
EXTT7=
EXTT8=
EXTT9=
EXTT10=
EXTT11=
EXTT12=
PLAYORDER=
